<svg version="1.2" xmlns="http://www.w3.org/2000/svg" viewBox="0 0 1861 2500" width="1861" height="2500" class="svgObject">
	<title>nuclear-svg</title>
	<defs>
		<image  width="1861" height="2500" id="img1" href="assets/posterImages/nuclear-policyEdit.jpg"/>
		<clipPath clipPathUnits="userSpaceOnUse" id="cp1">
			<path d="m53.52 2317.72h1753.8c3.43 0 6.21 2.78 6.21 6.21v100.06c0 3.42-2.78 6.2-6.21 6.2h-1753.8c-3.43 0-6.2-2.78-6.2-6.2v-100.06c0-3.43 2.77-6.21 6.2-6.21z"/>
		</clipPath>
	</defs>
	<style>
		tspan { white-space:pre } 
		.s0 { fill: none;stroke: none;stroke-width: 15.5 } 
		.t1 { font-size: 117px;fill: #ffffff;font-weight: 400;font-family: "font2" } 
	</style>
	<use  href="#img1" x="0" y="0"/>
	<g id="Clip-Path" clip-path="url(#cp1)">
		<path class="s0" d="m53.5 2317.7h1753.8c3.4 0 6.2 2.8 6.2 6.2v100.1c0 3.4-2.8 6.2-6.2 6.2h-1753.8c-3.4 0-6.2-2.8-6.2-6.2v-100.1c0-3.4 2.8-6.2 6.2-6.2z"/>
	</g>
	
	<!-- <rect x="0" y ="0" width="100" height="100" stroke="green" stroke-width="15" style="transform: matrix(1.25,0,0,.744,84,2415.4)"/> -->
	<text id="Edit this text please" style="transform: matrix(1.25,0,0,.744,84,2415.4)" class="t1">Edit this text please</text>
		<!-- <tspan x="0" y="0" class="t1">E</tspan><tspan  y="0" class="t1">d</tspan><tspan  y="0" class="t1">i</tspan><tspan  y="0" class="t1">t</tspan><tspan  y="0" class="t1"> </tspan><tspan  y="0" class="t1">t</tspan><tspan  y="0" class="t1">h</tspan><tspan  y="0" class="t1">i</tspan><tspan  y="0" class="t1">s</tspan><tspan  y="0" class="t1"> </tspan><tspan  y="0" class="t1">t</tspan><tspan  y="0" class="t1">e</tspan><tspan  y="0" class="t1">x</tspan><tspan  y="0" class="t1">t</tspan><tspan  y="0" class="t1"> </tspan><tspan  y="0" class="t1">p</tspan><tspan  y="0" class="t1">l</tspan><tspan  y="0" class="t1">e</tspan><tspan  y="0" class="t1">a</tspan><tspan  y="0" class="t1">s</tspan><tspan  y="0" class="t1">e -->
<!-- </tspan> -->
	<!-- </text> -->
</svg>